<svg xmlns="http://www.w3.org/2000/svg" width="33" height="45" viewBox="0 0 33 45">
  <g fill="none" fill-rule="evenodd">
    <g transform="translate(0 5.427)">
      <rect width="6.647" height="7.445" x="13.014" y="28.092" fill="#FDCC9B"/>
      <path fill="#FCBC85" d="M13.0140452,28.9691457 C13.0140452,28.9691457 15.8101508,30.7496985 19.6611558,30.3372362 L19.6611558,28.0922111 L13.0140452,28.0922111 L13.0140452,28.9691457 Z"/>
      <ellipse cx="3.429" cy="16.548" fill="#FCBC85" rx="3.243" ry="3.7"/>
      <ellipse cx="29.246" cy="16.548" fill="#FCBC85" rx="3.243" ry="3.7"/>
      <path fill="#FDCC9B" d="M29.2328141,9.48052764 C29.2328141,4.0301005 25.2445477,0.0416080402 16.3374874,0.0416080402 C7.43042714,0.0416080402 3.4421608,4.02987437 3.4421608,9.48052764 C3.4421608,14.9311809 2.51163317,29.2888945 16.3374874,29.2888945 C30.1633417,29.2888945 29.2328141,14.9311809 29.2328141,9.48052764 Z"/>
      <g transform="translate(7.462 9.95)">
        <g transform="translate(1.13 4.07)">
          <ellipse cx="1.464" cy="1.642" fill="#3B2519" rx="1.396" ry="1.529"/>
          <circle cx=".855" cy=".967" r="1" fill="#FFF"/>
        </g>
        <path fill="#51362A" d="M0.361130653,1.92369347 C1.02120603,2.25384422 2.0810804,0.802085427 4.50723618,2.06502513 C4.94954774,2.29522613 5.21344221,0.095879397 2.6129397,0.095879397 C0.361130653,0.095879397 -0.0377638191,1.72447236 0.361130653,1.92369347 Z"/>
        <g transform="translate(13.794 4.07)">
          <ellipse cx="1.535" cy="1.642" fill="#3B2519" rx="1.396" ry="1.529"/>
          <circle cx=".926" cy=".967" r="1" fill="#FFF"/>
        </g>
        <path fill="#51362A" d="M17.3892211,1.92369347 C16.7291457,2.25384422 15.6692714,0.802085427 13.2431156,2.06502513 C12.800804,2.29522613 12.5369095,0.095879397 15.1376382,0.095879397 C17.3892211,0.095879397 17.7878894,1.72447236 17.3892211,1.92369347 Z"/>
      </g>
      <path fill="#FCBC85" d="M16.3374874 21.0398744C14.9580905 21.0398744 14.1272864 20.0096231 14.1272864 20.5080151 14.1272864 21.0066332 14.5261809 21.9538945 16.3374874 21.9538945 18.148794 21.9538945 18.5476884 21.0066332 18.5476884 20.5080151 18.5476884 20.009397 17.7166583 21.0398744 16.3374874 21.0398744zM16.3374874 25.6235427C15.8603518 25.6235427 15.5729397 25.2671608 15.5729397 25.4396985 15.5729397 25.6122362 15.7108794 25.9396734 16.3374874 25.9396734 16.9640955 25.9396734 17.101809 25.6122362 17.101809 25.4396985 17.101809 25.2671608 16.814397 25.6235427 16.3374874 25.6235427z"/>
      <path fill="#F7945E" d="M16.3374874,24.3533668 C14.1512563,24.3533668 12.8340452,23.4630905 12.8340452,23.6887688 C12.8340452,23.9144472 13.4663065,24.8022362 16.3374874,24.8022362 C19.2086683,24.8022362 19.8409296,23.9144472 19.8409296,23.6887688 C19.8407035,23.4630905 18.5237186,24.3533668 16.3374874,24.3533668 Z"/>
    </g>
    <path fill="#F7941E" d="M16.3374874 36.510603L16.3374874 44.8860302.185653266 44.8860302C.185653266 41.4958794 8.69336683 36.510603 16.3374874 36.510603zM16.3374874 36.510603L16.3374874 44.8860302 32.4893216 44.8860302C32.4893216 41.4958794 23.981608 36.510603 16.3374874 36.510603z"/>
    <path fill="#F36C21" d="M16.3374874,36.510603 C14.711608,36.510603 13.0468342,36.7378643 11.4329397,37.1256784 C11.443794,37.1399246 13.2229899,39.4353769 16.3374874,39.4353769 C19.2215578,39.4353769 21.1389196,37.4696231 21.4168342,37.1672864 C19.7484422,36.7532412 18.0221608,36.510603 16.3374874,36.510603 Z"/>
    <path fill="#FDCC9B" d="M13.0138191,36.8005025 C13.0138191,36.8005025 13.9859548,38.0062312 16.3372613,38.0062312 C18.6885678,38.0062312 19.6609296,36.8005025 19.6609296,36.8005025 C19.6609296,36.8005025 16.2128894,35.5452513 13.0138191,36.8005025 Z"/>
    <path fill="#51362A" d="M26.939397,4.30575377 C26.939397,4.30575377 22.1535678,-1.77625628 12.2065327,0.516934673 C2.25972362,2.8098995 1.51439698,8.79241206 1.81356784,14.6127889 C2.11273869,20.433392 2.91030151,23.8479648 3.85371859,23.426005 C4.79713568,23.0038191 4.30620603,19.1618593 4.40592965,18.275201 C4.50565327,17.3885427 5.4029397,13.378794 11.4526131,13.9771357 C17.5020603,14.5754774 22.5999497,12.3817839 22.5999497,12.3817839 C22.5999497,12.3817839 24.6520854,14.9757286 26.0025377,15.4727638 C28.7011809,16.4657035 27.8161055,23.0865829 28.8734925,23.0865829 C29.9308794,23.0865829 35.1153769,7.79540201 26.939397,4.30575377 Z"/>
  </g>
</svg>
