<svg xmlns="http://www.w3.org/2000/svg" width="44" height="57" viewBox="0 0 44 57">
  <defs>
    <filter id="girl-a" width="168%" height="168%" x="-34%" y="-34%" filterUnits="objectBoundingBox">
      <feOffset dy="2" in="SourceAlpha" result="shadowOffsetOuter1"/>
      <feGaussianBlur in="shadowOffsetOuter1" result="shadowBlurOuter1" stdDeviation="3"/>
      <feColorMatrix in="shadowBlurOuter1" result="shadowMatrixOuter1" values="0 0 0 0 0   0 0 0 0 0   0 0 0 0 0  0 0 0 0.149881114 0"/>
      <feMerge>
        <feMergeNode in="shadowMatrixOuter1"/>
        <feMergeNode in="SourceGraphic"/>
      </feMerge>
    </filter>
  </defs>
  <g fill="none" fill-rule="evenodd" filter="url(#girl-a)" transform="translate(6 4)">
    <path fill="#543C2A" d="M16.0736029 14.5894853L16.0736029 43.5736765 29.36625 43.5736765C29.36625 43.5736765 31.8917647 30.4784559 31.8297794 22.5928676 31.7677941 14.7072794 16.0736029 14.5894853 16.0736029 14.5894853zM16.0736029 14.5894853L16.0736029 43.5736765 2.78139706 43.5736765C2.78139706 43.5736765.255882353 30.4784559.317867647 22.5928676.379632353 14.7072794 16.0736029 14.5894853 16.0736029 14.5894853z"/>
    <g transform="translate(.22 6.397)">
      <rect width="6.484" height="7.262" x="12.611" y="27.457" fill="#FDCC9B"/>
      <path fill="#FCBC85" d="M12.6110294,28.3120588 C12.6110294,28.3120588 15.3386029,30.0489706 19.0952206,29.6468382 L19.0952206,27.4566176 L12.6110294,27.4566176 L12.6110294,28.3120588 Z"/>
      <ellipse cx="3.261" cy="16.196" fill="#FCBC85" rx="3.164" ry="3.61"/>
      <ellipse cx="28.445" cy="16.196" fill="#FCBC85" rx="3.164" ry="3.61"/>
      <path fill="#FDCC9B" d="M28.4325,9.30110294 C28.4325,3.98404412 24.5419853,0.0935294118 15.8532353,0.0935294118 C7.16448529,0.0935294118 3.27419118,3.98404412 3.27419118,9.30110294 C3.27419118,14.6181618 2.36647059,28.6239706 15.8532353,28.6239706 C29.3402206,28.6239706 28.4325,14.6181618 28.4325,9.30110294 Z"/>
      <g transform="translate(7.28 10.588)">
        <g transform="translate(.882 3.088)">
          <ellipse cx="1.564" cy="1.655" fill="#3B2519" rx="1.362" ry="1.491"/>
          <circle cx=".971" cy=".996" r="1" fill="#FFF"/>
        </g>
        <path fill="#684B37" d="M0.268455882,1.52757353 C0.912352941,1.77397059 1.94602941,0.689779412 4.31294118,1.63301471 C4.74441176,1.80507353 5.00183824,0.162132353 2.46485294,0.162132353 C0.268455882,0.162132353 -0.120661765,1.37867647 0.268455882,1.52757353 Z"/>
        <g transform="translate(13.456 3.088)">
          <ellipse cx="1.413" cy="1.655" fill="#3B2519" rx="1.362" ry="1.491"/>
          <circle cx=".819" cy=".996" r="1" fill="#FFF"/>
        </g>
        <path fill="#684B37" d="M16.8791912,1.52757353 C16.2352941,1.77397059 15.2013971,0.689779412 12.8347059,1.63301471 C12.4032353,1.80507353 12.1458088,0.162132353 14.6825735,0.162132353 C16.8791912,0.162132353 17.2680882,1.37867647 16.8791912,1.52757353 Z"/>
      </g>
      <path fill="#FCBC85" d="M15.8530147 20.5771324C14.5076471 20.5771324 13.6972059 19.5719118 13.6972059 20.0583088 13.6972059 20.5444853 14.0863235 21.46875 15.8530147 21.46875 17.6201471 21.46875 18.0090441 20.5447059 18.0090441 20.0583088 18.0092647 19.5719118 17.1986029 20.5771324 15.8530147 20.5771324zM15.8530147 25.0484559C15.3877941 25.0484559 15.1074265 24.7010294 15.1074265 24.8688971 15.1074265 25.0372059 15.2419853 25.3568382 15.8530147 25.3568382 16.4642647 25.3568382 16.5988235 25.0372059 16.5988235 24.8688971 16.5988235 24.7010294 16.3186765 25.0484559 15.8530147 25.0484559z"/>
      <path fill="#F7945E" d="M15.8530147,23.8094118 C13.7203676,23.8094118 12.4356618,22.9409559 12.4356618,23.1611029 C12.4356618,23.38125 13.0522059,24.2472794 15.8530147,24.2472794 C18.6538235,24.2472794 19.2705882,23.3810294 19.2705882,23.1611029 C19.2705882,22.9411765 17.9856618,23.8094118 15.8530147,23.8094118 Z"/>
      <circle cx="7.975" cy="20.097" r="1.848" fill="#F9AA8D"/>
      <circle cx="23.958" cy="20.097" r="1.848" fill="#F9AA8D"/>
    </g>
    <path fill="#F5A860" d="M16.0736029 36.7718382L16.0736029 44.9417647 1.87389706 44.9417647C1.87389706 41.6349265 8.61705882 36.7718382 16.0736029 36.7718382zM16.0736029 36.7718382L16.0736029 44.9417647 30.2735294 44.9417647C30.2735294 41.6349265 23.5305882 36.7718382 16.0736029 36.7718382z"/>
    <path fill="#F18B45" d="M13.3676471,36.9818382 C13.3259559,36.9877941 13.2840441,36.9961765 13.2421324,37.0025735 C12.3679412,37.1424265 11.5151471,37.3398529 10.6958824,37.5877941 L16.0738235,44.9417647 L16.0738235,40.8569118 L13.6477941,36.94875 C13.5549265,36.9617647 13.4602941,36.9677206 13.3676471,36.9818382 Z"/>
    <path fill="#F18B45" d="M18.7797794,36.9818382 C18.8216912,36.9877941 18.8636029,36.9961765 18.9055147,37.0025735 C19.7797059,37.1424265 20.6325,37.3398529 21.4517647,37.5877941 L16.0736029,44.9417647 L16.0736029,40.8569118 L18.4996324,36.9489706 C18.5925,36.9617647 18.6873529,36.9677206 18.7797794,36.9818382 Z"/>
    <path fill="#684B37" d="M16.0736029,0 C1.41970588,0 -0.297573529,10.3656618 0.317867647,22.5926471 C0.933308824,34.8198529 11.3084559,40.8566912 11.3084559,40.8566912 C11.3084559,40.8566912 -0.317647059,24.2183824 9.35316176,9.62889706 C9.35316176,9.62889706 7.53727941,12.7517647 7.63566176,15.3675 C7.63566176,15.3675 9.91389706,14.5894853 16.0738235,14.5894853 C22.2339706,14.5894853 24.5119853,15.3675 24.5119853,15.3675 C24.6105882,12.7517647 22.7947059,9.62889706 22.7947059,9.62889706 C32.4655147,24.2181618 20.8391912,40.8566912 20.8391912,40.8566912 C20.8391912,40.8566912 31.2145588,34.8198529 31.83,22.5926471 C32.4452206,10.3656618 30.7279412,0 16.0736029,0 Z"/>
    <path fill="#FDCC9B" d="M12.8316176,37.0546324 L16.0736029,42.43875 L19.3155882,37.0544118 C19.3158088,37.0544118 15.9522794,35.8297059 12.8316176,37.0546324 Z"/>
  </g>
</svg>
