<svg xmlns="http://www.w3.org/2000/svg" width="30" height="30" viewBox="0 0 30 30">
  <path fill-opacity=".798" fill-rule="evenodd" d="M1135,100 C1126.71573,100 1120,93.2842712 1120,85 C1120,76.7157288 1126.71573,70 1135,70 C1143.28427,70 1150,76.7157288 1150,85 C1150,93.2842712 1143.28427,100 1135,100 Z M1136.76777,85 L1141.88388,79.8838835 C1143.06239,78.7053722 1141.29463,76.9376052 1140.11612,78.1161165 L1135,83.232233 L1129.88388,78.1161165 C1128.70537,76.9376052 1126.93761,78.7053722 1128.11612,79.8838835 L1133.23223,85 L1128.11612,90.1161165 C1126.93761,91.2946278 1128.70537,93.0623948 1129.88388,91.8838835 L1135,86.767767 L1140.11612,91.8838835 C1141.29463,93.0623948 1143.06239,91.2946278 1141.88388,90.1161165 L1136.76777,85 Z" transform="translate(-1120 -70)"/>
</svg>
