<svg xmlns="http://www.w3.org/2000/svg" width="35" height="35" viewBox="0 0 35 35">
  <g fill="#1D1D1D" fill-rule="evenodd" transform="translate(4 2)">
    <path fill-rule="nonzero" d="M13.073913,16.700207 C13.1060041,16.700207 13.1380952,16.700207 13.1766046,16.700207 C13.189441,16.700207 13.2022774,16.700207 13.2151139,16.700207 C13.2343685,16.700207 13.2600414,16.700207 13.2792961,16.700207 C15.1598344,16.6681159 16.6809524,16.0070393 17.8041408,14.7426501 C20.2751553,11.9571429 19.8643892,7.18198758 19.8194617,6.726294 C19.6590062,3.30538302 18.0416149,1.66873706 16.7066253,0.904968944 C15.7118012,0.333747412 14.5501035,0.0256728778 13.2536232,0 L13.2086957,0 C13.2022774,0 13.189441,0 13.1830228,0 L13.1445135,0 C12.4320911,0 11.0329193,0.11552795 9.69151139,0.879296066 C8.3436853,1.64306418 6.70062112,3.27971014 6.54016563,6.726294 C6.4952381,7.18198758 6.08447205,11.9571429 8.55548654,14.7426501 C9.67225673,16.0070393 11.1933747,16.6681159 13.073913,16.700207 Z M8.25383023,6.88674948 C8.25383023,6.86749482 8.26024845,6.84824017 8.26024845,6.83540373 C8.47204969,2.23354037 11.7389234,1.73933747 13.1380952,1.73933747 L13.1637681,1.73933747 C13.1766046,1.73933747 13.1958592,1.73933747 13.2151139,1.73933747 C14.9480331,1.77784679 17.8939959,2.48385093 18.0929607,6.83540373 C18.0929607,6.85465839 18.0929607,6.87391304 18.0993789,6.88674948 C18.1057971,6.93167702 18.5550725,11.2960663 16.5140787,13.5937888 C15.705383,14.505176 14.6271222,14.9544513 13.2086957,14.9672878 C13.1958592,14.9672878 13.189441,14.9672878 13.1766046,14.9672878 C13.1637681,14.9672878 13.1573499,14.9672878 13.1445135,14.9672878 C11.7325052,14.9544513 10.6478261,14.505176 9.84554865,13.5937888 C7.81097308,11.3089027 8.24741201,6.9252588 8.25383023,6.88674948 Z"/>
    <path d="M26.3660455,24.6202899 C26.3660455,24.6138716 26.3660455,24.6074534 26.3660455,24.6010352 C26.3660455,24.5496894 26.3596273,24.4983437 26.3596273,24.4405797 C26.321118,23.1697723 26.2376812,20.1981366 23.4521739,19.2482402 C23.4329193,19.2418219 23.4072464,19.2354037 23.3879917,19.2289855 C20.4933747,18.4908903 18.0865424,16.8221532 18.0608696,16.8028986 C17.6693582,16.5269151 17.1302277,16.6231884 16.8542443,17.0146998 C16.5782609,17.4062112 16.6745342,17.9453416 17.0660455,18.2213251 C17.1751553,18.2983437 19.7296066,20.0761905 22.9258799,20.8977226 C24.4213251,21.4304348 24.5881988,23.0285714 24.6331263,24.4919255 C24.6331263,24.5496894 24.6331263,24.6010352 24.6395445,24.652381 C24.6459627,25.2300207 24.6074534,26.1221532 24.5047619,26.6356108 C23.4650104,27.226087 19.389441,29.2670807 13.189441,29.2670807 C7.01511387,29.2670807 2.91387164,27.2196687 1.86770186,26.6291925 C1.76501035,26.115735 1.72008282,25.2236025 1.73291925,24.6459627 C1.73291925,24.594617 1.73933747,24.5432712 1.73933747,24.4855072 C1.78426501,23.0221532 1.95113872,21.4240166 3.44658385,20.8913043 C6.64285714,20.0697723 9.19730849,18.2855072 9.30641822,18.2149068 C9.69792961,17.9389234 9.7942029,17.399793 9.51821946,17.0082816 C9.24223602,16.6167702 8.70310559,16.5204969 8.3115942,16.7964803 C8.28592133,16.815735 5.89192547,18.484472 2.98447205,19.2225673 C2.95879917,19.2289855 2.93954451,19.2354037 2.92028986,19.2418219 C0.134782609,20.1981366 0.0513457557,23.1697723 0.0128364389,24.4341615 C0.0128364389,24.4919255 0.0128364389,24.5432712 0.00641821946,24.594617 C0.00641821946,24.6010352 0.00641821946,24.6074534 0.00641821946,24.6138716 C-3.46077333e-16,24.947619 -0.00641821946,26.6612836 0.333747412,27.5213251 C0.397929607,27.6881988 0.513457557,27.8293996 0.667494824,27.9256729 C0.860041408,28.0540373 5.4747412,30.9935818 13.1958592,30.9935818 C20.9169772,30.9935818 25.531677,28.047619 25.7242236,27.9256729 C25.8718427,27.8293996 25.9937888,27.6881988 26.057971,27.5213251 C26.378882,26.6677019 26.3724638,24.9540373 26.3660455,24.6202899 Z"/>
  </g>
</svg>
