<svg xmlns="http://www.w3.org/2000/svg" width="30" height="30" viewBox="0 0 30 30">
  <path fill="#00A6B0" d="M175,97 C166.715729,97 160,90.2842712 160,82 C160,73.7157288 166.715729,67 175,67 C183.284271,67 190,73.7157288 190,82 C190,90.2842712 183.284271,97 175,97 Z M175,95.1818182 C182.280117,95.1818182 188.181818,89.2801172 188.181818,82 C188.181818,74.7198828 182.280117,68.8181818 175,68.8181818 C167.719883,68.8181818 161.818182,74.7198828 161.818182,82 C161.818182,89.2801172 167.719883,95.1818182 175,95.1818182 Z M175,74.2727273 C175.753116,74.2727273 176.363636,74.8832481 176.363636,75.6363636 C176.363636,76.3894792 175.753116,77 175,77 C174.246884,77 173.636364,76.3894792 173.636364,75.6363636 C173.636364,74.8832481 174.246884,74.2727273 175,74.2727273 Z M175,78.8181818 C175.753116,78.8181818 176.363636,79.4287026 176.363636,80.1818182 L176.363636,88.3636364 C176.363636,89.1167519 175.753116,89.7272727 175,89.7272727 C174.246884,89.7272727 173.636364,89.1167519 173.636364,88.3636364 L173.636364,80.1818182 C173.636364,79.4287026 174.246884,78.8181818 175,78.8181818 Z" transform="translate(-160 -67)"/>
</svg>
