<svg xmlns="http://www.w3.org/2000/svg" width="35" height="35" viewBox="0 0 35 35">
  <g fill="#1D1D1D" fill-rule="evenodd" transform="translate(5 2)">
    <path d="M19.5668549,9.8480159 C18.3924294,8.75149105 17.1785606,7.61749503 16.0593559,6.45588867 C14.2172286,4.48489264 12.5938887,2.3203161 11.2176859,0 L9.50387276,0.975236581 C10.9566203,3.44069185 12.6786918,5.73721869 14.6384095,7.8226004 C15.7950855,9.0236501 17.0286759,10.1753956 18.2208509,11.28967 C20.1013121,13.0448986 22.6769622,15.4499563 22.6769622,16.285169 C22.6769622,19.9879125 20.2728907,21.4236501 17.9437614,22.8140278 C16.4952048,23.6788231 15.127507,24.4953002 14.4648588,25.8196103 C14.2354095,26.2904036 14.1199145,26.8085905 14.1276183,27.3322624 C14.2144553,28.6295169 14.6382863,29.8817197 15.3572644,30.964994 L17.0010656,29.8733996 C16.5042644,29.1103559 16.1962982,28.2399523 16.1027435,27.3342346 C16.096334,27.1174195 16.1402147,26.9021451 16.2309344,26.7051133 C16.9410994,25.75533 17.879173,24.9996819 18.9584414,24.5081193 C21.3595547,23.0733678 24.6491292,21.1100755 24.6491292,16.2871412 C24.6491292,14.6719364 22.8130417,12.8782505 19.5668549,9.8480159 Z"/>
    <path d="M3.6928827,23.1749344 C2.60893042,22.7186859 1.93290855,21.6259821 2.00865209,20.4523579 C2.046,19.4505586 2.28580318,18.4667555 2.71370179,17.560175 L0.954528827,16.6726998 C0.386236581,17.8555686 0.0727852883,19.1445646 0.0345129225,20.4563022 C-0.0538648111,22.3975924 1.06712724,24.19134 2.8507674,24.9627038 C3.27194831,25.1608449 3.73226441,25.2619801 4.19775746,25.2585288 C5.6532167,25.2585288 7.13431412,24.3434433 8.70218688,23.3741233 C10.4367078,22.2992922 12.2284215,21.1958648 14.053662,21.1958648 L14.053662,19.2236978 C11.668326,19.2236978 9.5433161,20.537161 7.6667992,21.6967952 C6.06638569,22.6818926 4.57641352,23.5979642 3.6928827,23.1749344 Z"/>
  </g>
</svg>
