<svg xmlns="http://www.w3.org/2000/svg" width="35" height="35" viewBox="0 0 35 35">
  <g fill="#1D1D1D" fill-rule="evenodd" transform="translate(10 2)">
    <path fill-rule="nonzero" d="M11.4669124,18.1863785 L11.4669124,4.29109163 C11.4669124,1.92496414 9.54145418,0 7.17483267,0 C4.80858167,0 2.88349402,1.92496414 2.88349402,4.29109163 L2.88349402,18.186255 C1.12550996,19.5254303 0.0901593625,21.5937849 0.0901593625,23.8150398 C0.0901593625,27.7216574 3.26821514,30.8998367 7.17483267,30.8998367 C11.0816972,30.8998367 14.26,27.7216574 14.26,23.8150398 C14.26,21.5940319 13.2246494,19.5256773 11.4669124,18.1863785 Z M7.17483267,29.047247 C4.28985657,29.047247 1.942749,26.7001394 1.942749,23.8150398 C1.942749,22.0496454 2.83050996,20.4140558 4.31752191,19.4398406 C4.57873705,19.2686614 4.73620717,18.9773108 4.73620717,18.6650876 L4.73620717,4.29109163 C4.73620717,2.94648207 5.83022311,1.85258964 7.17495618,1.85258964 C8.52018327,1.85258964 9.61444622,2.94648207 9.61444622,4.29109163 L9.61444622,18.6650876 C9.61444622,18.9774343 9.77179283,19.2686614 10.0331315,19.4398406 C11.5198964,20.4141793 12.4076574,22.0497689 12.4076574,23.8150398 C12.4074104,26.7001394 10.0600558,29.047247 7.17483267,29.047247 Z"/>
    <path d="M8.1013745,20.8776972 L8.1013745,8.63603187 C8.1013745,8.12447012 7.68676494,7.70973705 7.17507968,7.70973705 C6.66339442,7.70973705 6.24878486,8.12447012 6.24878486,8.63603187 L6.24878486,20.8776972 C5.00088048,21.2708167 4.0960757,22.4365896 4.0960757,23.8150398 C4.0960757,25.5153466 5.47440239,26.8941673 7.17507968,26.8941673 C8.87612749,26.8941673 10.2543307,25.5153466 10.2543307,23.8150398 C10.2542072,22.4364661 9.34940239,21.2705697 8.1013745,20.8776972 Z"/>
  </g>
</svg>
