<svg xmlns="http://www.w3.org/2000/svg" width="35" height="35" viewBox="0 0 35 35">
  <g fill="#1D1D1D" fill-rule="evenodd" transform="translate(3 2)">
    <path d="M24.7542159,7.33197556 C24.7542159,10.8004888 20.2025255,14.0294908 17.4896945,15.6415479 C15.9424644,16.5639104 14.0140326,16.5639104 12.4668024,15.6415479 C9.75397149,14.0294908 5.20228106,10.8004888 5.20228106,7.33197556 L5.20228106,0 L3.24708758,0 L3.24708758,7.33197556 C3.24708758,9.94118126 4.96179226,12.293279 7.15747454,14.2377189 L7.15747454,22.2833401 L3.66256619,23.5229328 L4.31560081,25.3647251 L9.11266802,23.6637067 L9.11266802,15.7872098 C9.89474542,16.3512831 10.6963747,16.8674542 11.4657434,17.325947 C13.6299593,18.6150916 16.3265377,18.6150916 18.4907536,17.325947 C19.2601222,16.8674542 20.0549084,16.3483503 20.8438289,15.7872098 L20.8438289,23.6637067 L25.6408961,25.3647251 L26.2939308,23.5229328 L22.7990224,22.2833401 L22.7990224,14.2377189 C24.9947047,12.293279 26.7094094,9.94118126 26.7094094,7.33197556 L26.7094094,0 L24.7542159,0 L24.7542159,7.33197556 Z"/>
    <polygon points="27.759 24.447 29.714 24.447 29.714 26.402 27.759 26.402" transform="rotate(-70.458 28.736 25.425)"/>
    <polygon points=".276 24.467 2.231 24.467 2.231 26.359 .276 26.359" transform="rotate(-109.542 1.254 25.413)"/>
    <polygon points="17.22 29.614 18.602 30.997 20.271 29.328 25.732 29.328 25.732 27.373 19.462 27.373"/>
    <polygon points="4.225 27.373 4.225 29.328 9.686 29.328 11.354 30.997 12.737 29.614 10.495 27.373"/>
  </g>
</svg>
